<svg width="229" height="80" viewBox="0 0 229 80" fill="none" xmlns="http://www.w3.org/2000/svg">
    <g clip-path="url(#clip0_337_108)">
        <path d="M0 0.126709H64.1275V18.2853H43.4292V79.9999H21.586V18.1585H0V0.126709Z" fill="#FFA800" />
        <path d="M158.25 0H178.184V27.8103L201.868 0H224.66L198.248 31.8102L228.913 79.7464H206.82L185.488 46.2225L178.057 55.3634V79.7464H158.25V0Z" fill="#FFA800" />
        <path d="M90.3366 75.7501C92.0793 74.1995 95.8907 71.9242 100.039 76.5399V20.5026H90.3366V28.4733C89.6231 26.7599 88.6302 25.1769 87.3983 23.7887C85.8885 22.1309 84.0128 20.8482 81.9203 20.0425C79.6057 19.1696 77.1477 18.7395 74.6743 18.7744C71.362 18.7712 68.0916 19.5142 65.1059 20.9482C61.9825 22.4443 59.1975 24.5624 56.9214 27.1726C54.4535 30.009 52.5201 33.2693 51.2152 36.7954C48.3781 44.8868 48.3781 53.7027 51.2152 61.7942C52.5184 65.3222 54.4519 68.584 56.9214 71.4206C59.1975 74.0308 61.9825 76.1489 65.1059 77.645C68.0915 79.0792 71.362 79.8222 74.6743 79.8188C77.077 79.8436 79.4629 79.4146 81.7066 78.5543C83.8139 77.743 85.7182 76.4804 87.286 74.8552C88.5656 73.4869 89.5978 71.9067 90.3366 70.1851V75.7501Z" fill="#FFA800" />
        <path d="M67.1563 64.0261C69.5222 62.9863 73.3445 62.3088 77.6631 62.3088C81.9818 62.3088 85.7497 62.9754 88.1192 64.0043C90.5511 61.8704 92.2745 59.0455 93.0592 55.9066C93.8439 52.7677 93.6526 49.4642 92.5109 46.4368C91.3693 43.4094 89.3315 40.8023 86.6695 38.9632C84.0075 37.1242 80.8479 36.1407 77.6125 36.1441C74.377 36.1474 71.2195 37.1374 68.5613 38.982C65.9031 40.8266 63.8708 43.438 62.7354 46.4677C61.6 49.4974 61.4156 52.8013 62.2068 55.9386C62.998 59.0758 64.7272 61.8972 67.1636 64.0261H67.1563Z" fill="black" />
        <path d="M69.0441 63.363C74.684 61.9724 80.5773 61.9724 86.2172 63.363C88.5814 61.5656 90.322 59.0717 91.1936 56.2326C92.0652 53.3935 92.024 50.3525 91.0756 47.5382C90.1273 44.7238 88.3197 42.278 85.9076 40.5454C83.4955 38.8128 80.6005 37.8809 77.6306 37.8809C74.6608 37.8809 71.7658 38.8128 69.3537 40.5454C66.9416 42.278 65.134 44.7238 64.1857 47.5382C63.2373 50.3525 63.196 53.3935 64.0677 56.2326C64.9393 59.0717 66.6799 61.5656 69.0441 63.363Z" fill="url(#paint0_linear_337_108)" />
        <path d="M64.642 42.8676C64.642 42.8676 61.5262 42.8205 58.4177 39.6467C58.4177 39.6467 58.6351 43.3748 63.287 45.161L62.7617 46.3856C60.8106 46.4957 58.884 45.9074 57.3271 44.7262C57.6935 45.7466 58.3273 46.6497 59.1622 47.3412C59.9972 48.0328 61.0026 48.4873 62.0733 48.6572L64.642 42.8676Z" fill="black" />
        <path d="M73.1163 62.5768C76.1146 62.229 79.143 62.229 82.1413 62.5768C83.7721 61.5912 85.0354 60.0987 85.7381 58.3275C86.4409 56.5562 86.5443 54.6036 86.0327 52.768C85.5211 50.9324 84.4226 49.3148 82.9051 48.1623C81.3875 47.0099 79.5343 46.386 77.6288 46.386C75.7232 46.386 73.8701 47.0099 72.3525 48.1623C70.8349 49.3148 69.7364 50.9324 69.2248 52.768C68.7132 54.6036 68.8167 56.5562 69.5194 58.3275C70.2221 60.0987 71.4855 61.5912 73.1163 62.5768Z" fill="black" />
        <path d="M83.623 51.773C83.623 52.2503 83.4815 52.7168 83.2163 53.1136C82.9512 53.5104 82.5744 53.8197 82.1335 54.0023C81.6925 54.1849 81.2074 54.2327 80.7393 54.1396C80.2713 54.0465 79.8413 53.8167 79.5038 53.4792C79.1664 53.1418 78.9366 52.7118 78.8435 52.2438C78.7504 51.7757 78.7982 51.2906 78.9808 50.8497C79.1634 50.4087 79.4727 50.0319 79.8695 49.7667C80.2663 49.5016 80.7328 49.3601 81.2101 49.3601C81.5269 49.3601 81.8407 49.4225 82.1335 49.5438C82.4262 49.665 82.6922 49.8428 82.9163 50.0668C83.1403 50.2909 83.318 50.5569 83.4393 50.8497C83.5606 51.1424 83.623 51.4562 83.623 51.773Z" fill="url(#paint1_linear_337_108)" />
        <path d="M85.3837 55.4576C85.383 55.6301 85.3312 55.7986 85.2348 55.9417C85.1385 56.0848 85.0018 56.1961 84.8422 56.2617C84.6826 56.3272 84.5072 56.344 84.338 56.3099C84.1689 56.2758 84.0137 56.1923 83.8919 56.0701C83.7702 55.9478 83.6874 55.7923 83.654 55.623C83.6206 55.4537 83.6381 55.2783 83.7043 55.119C83.7704 54.9597 83.8824 54.8235 84.0259 54.7277C84.1694 54.6319 84.3381 54.5808 84.5106 54.5808C84.6256 54.5808 84.7394 54.6035 84.8456 54.6476C84.9517 54.6917 85.0482 54.7564 85.1293 54.8378C85.2104 54.9193 85.2747 55.016 85.3183 55.1223C85.362 55.2287 85.3842 55.3426 85.3837 55.4576Z" fill="white" />
        <path d="M136.505 42.8676C136.505 42.8676 139.62 42.8205 142.733 39.6467C142.733 39.6467 142.512 43.3748 137.86 45.161L138.389 46.3856C140.34 46.4957 142.266 45.9074 143.823 44.7262C143.456 45.7462 142.822 46.6489 141.987 47.3403C141.153 48.0318 140.147 48.4865 139.077 48.6572L136.505 42.8676Z" fill="black" />
        <path d="M112.104 75.7501C110.357 74.1995 106.546 71.9242 102.401 76.5399V20.5026H112.104V28.4733C112.816 26.7592 113.809 25.176 115.042 23.7887C116.552 22.1309 118.427 20.8482 120.52 20.0425C122.834 19.1696 125.292 18.7395 127.766 18.7744C131.078 18.7712 134.349 19.5142 137.334 20.9482C140.458 22.4443 143.243 24.5624 145.519 27.1726C147.987 30.009 149.92 33.2693 151.225 36.7954C154.062 44.8868 154.062 53.7027 151.225 61.7942C149.922 65.3222 147.988 68.584 145.519 71.4206C143.243 74.0308 140.458 76.1489 137.334 77.645C134.349 79.0792 131.078 79.8222 127.766 79.8188C125.363 79.8436 122.977 79.4146 120.734 78.5543C118.618 77.7306 116.71 76.4517 115.143 74.8081C113.872 73.4531 112.844 71.8892 112.104 70.1851V75.7501Z" fill="#FFA800" />
        <path d="M135.284 64.0261C132.918 62.9863 129.096 62.3088 124.777 62.3088C120.458 62.3088 116.69 62.9754 114.321 64.0043C111.889 61.8704 110.166 59.0455 109.381 55.9066C108.596 52.7677 108.787 49.4642 109.929 46.4368C111.071 43.4094 113.109 40.8023 115.771 38.9632C118.433 37.1242 121.592 36.1407 124.828 36.1441C128.063 36.1474 131.221 37.1374 133.879 38.982C136.537 40.8266 138.569 43.438 139.705 46.4677C140.84 49.4974 141.024 52.8013 140.233 55.9386C139.442 59.0758 137.713 61.8972 135.276 64.0261H135.284Z" fill="black" />
        <path d="M133.396 63.363C127.756 61.9724 121.863 61.9724 116.223 63.363C113.859 61.5656 112.118 59.0717 111.247 56.2326C110.375 53.3935 110.416 50.3525 111.365 47.5382C112.313 44.7238 114.121 42.278 116.533 40.5454C118.945 38.8128 121.84 37.8809 124.81 37.8809C127.779 37.8809 130.674 38.8128 133.087 40.5454C135.499 42.278 137.306 44.7238 138.255 47.5382C139.203 50.3525 139.244 53.3935 138.373 56.2326C137.501 59.0717 135.76 61.5656 133.396 63.363Z" fill="url(#paint2_linear_337_108)" />
        <path d="M137.798 42.8676C137.798 42.8676 140.914 42.8205 144.022 39.6467C144.022 39.6467 143.805 43.3748 139.153 45.161L139.678 46.3856C141.63 46.4957 143.556 45.9074 145.113 44.7262C144.747 45.7466 144.113 46.6497 143.278 47.3412C142.443 48.0328 141.438 48.4873 140.367 48.6572L137.798 42.8676Z" fill="black" />
        <path d="M129.313 62.5768C126.315 62.229 123.286 62.229 120.288 62.5768C118.657 61.5912 117.394 60.0987 116.691 58.3275C115.988 56.5562 115.885 54.6036 116.396 52.768C116.908 50.9324 118.007 49.3148 119.524 48.1623C121.042 47.0099 122.895 46.386 124.8 46.386C126.706 46.386 128.559 47.0099 130.077 48.1623C131.594 49.3148 132.693 50.9324 133.204 52.768C133.716 54.6036 133.612 56.5562 132.91 58.3275C132.207 60.0987 130.944 61.5912 129.313 62.5768Z" fill="black" />
        <path d="M118.806 51.773C118.806 52.2503 118.948 52.7168 119.213 53.1136C119.478 53.5104 119.855 53.8197 120.296 54.0023C120.737 54.1849 121.222 54.2327 121.69 54.1396C122.158 54.0465 122.588 53.8167 122.925 53.4792C123.263 53.1418 123.493 52.7118 123.586 52.2438C123.679 51.7757 123.631 51.2906 123.448 50.8497C123.266 50.4087 122.956 50.0319 122.56 49.7667C122.163 49.5016 121.696 49.3601 121.219 49.3601C120.579 49.3601 119.965 49.6143 119.513 50.0668C119.06 50.5193 118.806 51.1331 118.806 51.773Z" fill="url(#paint3_linear_337_108)" />
        <path d="M117.056 55.4576C117.057 55.6301 117.109 55.7986 117.205 55.9417C117.302 56.0848 117.438 56.1961 117.598 56.2617C117.758 56.3272 117.933 56.344 118.102 56.3099C118.271 56.2758 118.426 56.1923 118.548 56.0701C118.67 55.9478 118.753 55.7923 118.786 55.623C118.82 55.4537 118.802 55.2783 118.736 55.119C118.67 54.9597 118.558 54.8235 118.414 54.7277C118.271 54.6319 118.102 54.5808 117.93 54.5808C117.815 54.5808 117.701 54.6035 117.595 54.6476C117.488 54.6917 117.392 54.7564 117.311 54.8378C117.23 54.9193 117.165 55.016 117.122 55.1223C117.078 55.2287 117.056 55.3426 117.056 55.4576Z" fill="white" />
    </g>
    <defs>
        <linearGradient id="paint0_linear_337_108" x1="63.432" y1="50.6172" x2="91.8112" y2="50.6172" gradientUnits="userSpaceOnUse">
            <stop stop-color="white" />
            <stop offset="1" stop-color="white" />
        </linearGradient>
        <linearGradient id="paint1_linear_337_108" x1="78.7971" y1="51.773" x2="83.623" y2="51.773" gradientUnits="userSpaceOnUse">
            <stop stop-color="white" />
            <stop offset="1" stop-color="white" />
        </linearGradient>
        <linearGradient id="paint2_linear_337_108" x1="139.008" y1="50.6172" x2="110.629" y2="50.6172" gradientUnits="userSpaceOnUse">
            <stop stop-color="white" />
            <stop offset="1" stop-color="white" />
        </linearGradient>
        <linearGradient id="paint3_linear_337_108" x1="123.643" y1="51.773" x2="118.817" y2="51.773" gradientUnits="userSpaceOnUse">
            <stop stop-color="white" />
            <stop offset="1" stop-color="white" />
        </linearGradient>
        <clipPath id="clip0_337_108">
            <rect width="228.914" height="80" fill="white" />
        </clipPath>
    </defs>
</svg>